<svg xmlns="http://www.w3.org/2000/svg" width="173" height="40"><path style="stroke:none;fill-rule:nonzero;fill:#f7bf0a;fill-opacity:1" d="M29.383 15.57v12.653c0 .336-.133.66-.371.894a1.247 1.247 0 0 1-.89.371H15.515a5.035 5.035 0 0 1-3.567-1.48 5.075 5.075 0 0 1-1.476-3.578v-8.86c0-1.34.53-2.629 1.476-3.578a5.035 5.035 0 0 1 3.567-1.48h8.824c1.336 0 2.62.531 3.566 1.48a5.075 5.075 0 0 1 1.477 3.578zm0 0"/><path style="stroke:none;fill-rule:nonzero;fill:#fff;fill-opacity:1" d="M24.973 23.797 22.988 21.8a4.366 4.366 0 0 0 .723-2.434 4.45 4.45 0 0 0-.742-2.46 4.388 4.388 0 0 0-1.98-1.63 4.375 4.375 0 0 0-2.548-.254 4.423 4.423 0 0 0-2.261 1.211 4.456 4.456 0 0 0-.957 4.828c.336.81.902 1.5 1.625 1.989a4.42 4.42 0 0 0 2.453.746 4.327 4.327 0 0 0 2.426-.73l1.984 1.992a.896.896 0 0 0 .633.265c.234 0 .46-.097.629-.265a.89.89 0 0 0 0-1.262zm-2.907-2.918a3.138 3.138 0 0 1-4.516 1.117 3.149 3.149 0 0 1-1.34-3.246 3.2 3.2 0 0 1 .86-1.621 3.153 3.153 0 0 1 3.438-.684 3.164 3.164 0 0 1 1.558 4.434zm0 0"/><path style="stroke:none;fill-rule:nonzero;fill:#fff;fill-opacity:1" d="M19.75 19.816a.623.623 0 0 1-.691.137.59.59 0 0 1-.282-.234.592.592 0 0 1-.105-.352.633.633 0 0 0-1.078-.449.646.646 0 0 0-.184.45 1.89 1.89 0 0 0 1.168 1.749c.344.145.723.184 1.09.11a1.9 1.9 0 0 0 .969-.52.654.654 0 0 0 .152-.434.662.662 0 0 0-.184-.425.66.66 0 0 0-.421-.184.622.622 0 0 0-.434.152zm0 0"/><path style="stroke:none;fill-rule:nonzero;fill:#111827;fill-opacity:1" d="M40.79 27.883c-3.505 0-5.946-1.899-6.25-4.89h2.843c.297 1.503 1.66 2.429 3.578 2.429 1.582 0 2.523-.633 2.523-1.715 0-.863-.632-1.414-1.894-1.633l-2.375-.476c-2.77-.551-4.063-1.899-4.063-4.149 0-2.734 2.188-4.57 5.45-4.57 1.261 0 5.46.336 5.925 4.55h-2.843c-.184-1.03-.844-2.195-2.895-2.195-1.64 0-2.656.739-2.656 1.93 0 1.188 1.047 1.586 2.183 1.82l1.797.368c3.04.632 4.34 1.835 4.34 4.007 0 2.746-2.219 4.524-5.664 4.524zm12.53.019a5.27 5.27 0 0 1-2.082-.343 5.255 5.255 0 0 1-1.773-1.149 5.294 5.294 0 0 1-1.172-1.758 5.224 5.224 0 0 1-.375-2.086 5.07 5.07 0 0 1 .336-2.086 5.113 5.113 0 0 1 1.144-1.773 5.133 5.133 0 0 1 1.762-1.156 5.116 5.116 0 0 1 2.078-.344c2.942 0 4.996 2.113 4.996 5.145.004.28-.011.562-.043.843h-7.644v.145a2.605 2.605 0 0 0 2.79 2.258c.339.035.683-.02.999-.157a2.05 2.05 0 0 0 .8-.62h2.872c-.582 1.855-2.461 3.081-4.688 3.081zm-.062-8.472a2.511 2.511 0 0 0-1.711.543 2.535 2.535 0 0 0-.918 1.55l-.04.157h4.958v-.145a2.19 2.19 0 0 0-.2-.848 2.193 2.193 0 0 0-1.262-1.145 2.202 2.202 0 0 0-.858-.112zm11.102 8.363a5.106 5.106 0 0 1-3.579-1.574 5.134 5.134 0 0 1-1.422-3.653 5.098 5.098 0 0 1 1.39-3.688 5.097 5.097 0 0 1 1.65-1.148 4.973 4.973 0 0 1 1.96-.414 5.096 5.096 0 0 1 2.836.797l.196.125v-.707h2.73v10.047h-2.723v-.707l-.195.125a5.13 5.13 0 0 1-2.844.797zm.492-8.227a2.888 2.888 0 0 0-1.102.25 2.93 2.93 0 0 0-.922.66 2.885 2.885 0 0 0-.766 2.086 2.886 2.886 0 0 0 .778 2.06 2.852 2.852 0 0 0 2.012.882 3.01 3.01 0 0 0 2.523-1.234v-3.438a2.97 2.97 0 0 0-1.105-.945 2.93 2.93 0 0 0-1.418-.313zm7.519 8.012V17.531h2.73v1.336l.212-.199a4.887 4.887 0 0 1 3.39-1.297v2.59a4.801 4.801 0 0 0-1.941.387 4.915 4.915 0 0 0-1.63 1.132v6.11zm12.402.242a5.186 5.186 0 0 1-2.003-.402 5.154 5.154 0 0 1-1.7-1.137 5.262 5.262 0 0 1-1.53-3.715 5.278 5.278 0 0 1 1.531-3.715 5.277 5.277 0 0 1 1.699-1.136 5.182 5.182 0 0 1 2.003-.399c2.622 0 4.665 1.645 5.043 4.024h-2.738a2.223 2.223 0 0 0-.855-1.219 2.217 2.217 0 0 0-1.426-.414 2.679 2.679 0 0 0-1.973.84 2.711 2.711 0 0 0-.734 2.02c-.024.37.027.738.152 1.085a2.655 2.655 0 0 0 2.555 1.75 2.177 2.177 0 0 0 1.43-.398c.414-.293.718-.723.851-1.215h2.738c-.379 2.379-2.441 4.031-5.043 4.031zm14.125-.242v-5.27c0-1.683-.851-2.648-2.335-2.648a3.251 3.251 0 0 0-2.352 1.336l-.031.04v6.542h-2.723V12.535h2.723v5.844l.207-.168a4.468 4.468 0 0 1 2.86-1.023c2.66 0 4.374 1.898 4.374 4.84v5.53zm16.016 0-1.133-2.816h-6.773l-1.14 2.816h-3.024l6.176-14.46h2.742l6.156 14.46zm-6.871-5.383h4.703l-2.379-5.816zm14.914 5.707c-1.637 0-4.418-.476-4.71-3.64h2.483c.2 1.011.957 1.531 2.243 1.531 1.136 0 1.894-.398 1.894-1.012 0-.492-.418-.855-1.117-.96l-2.207-.387c-1.09-.196-2.918-.836-2.918-2.91 0-2.079 1.652-3.294 4.313-3.294 1.261 0 4.167.317 4.468 3.254h-2.472c-.118-.808-.852-1.265-1.996-1.265-1.149 0-1.645.543-1.645 1.008 0 .32.168.882 1.32 1.093l1.895.305c2.015.36 3 1.316 3 2.902-.051 2.09-1.774 3.375-4.551 3.375zm10.27 0c-1.637 0-4.415-.476-4.711-3.64h2.48c.203 1.011.961 1.531 2.25 1.531 1.129 0 1.863-.398 1.863-1.012 0-.492-.418-.855-1.109-.96l-2.207-.387c-1.094-.196-2.922-.836-2.922-2.91 0-2.079 1.652-3.294 4.313-3.294 1.261 0 4.171.317 4.472 3.254h-2.472c-.121-.808-.86-1.265-2-1.265-1.141 0-1.653.543-1.653 1.008 0 .32.176.882 1.332 1.093l1.89.305c2.02.36 3.005 1.316 3.005 2.902-.028 2.09-1.754 3.375-4.531 3.375zm6.367-.324V17.531h2.73v10.047zm1.386-12.219a1.592 1.592 0 0 1-1.18-.437 1.603 1.603 0 0 1-.495-1.156c0-.446.172-.871.484-1.184a1.662 1.662 0 0 1 2.355 0c.313.313.489.738.489 1.184 0 .214-.043.425-.13.625a1.612 1.612 0 0 1-.895.867c-.202.074-.413.11-.628.101zm7.66 12.543c-1.632 0-4.413-.476-4.702-3.64h2.476c.203 1.011.961 1.531 2.246 1.531 1.137 0 1.89-.398 1.89-1.012 0-.492-.413-.855-1.113-.96l-2.207-.387c-1.085-.196-2.914-.836-2.914-2.91 0-2.079 1.653-3.294 4.305-3.294 1.262 0 4.172.317 4.473 3.254h-2.473c-.113-.808-.851-1.265-2-1.265-1.144 0-1.644.543-1.644 1.008 0 .32.171.882 1.324 1.093l1.89.305c2.028.36 3.004 1.316 3.004 2.902-.05 2.09-1.773 3.375-4.554 3.375zm11.258 0c-2.425 0-3.992-1.691-3.992-4.304V19.8h-2.164v-2.27h2.164v-3.683h2.707v3.683h3.707v2.258h-3.707v3.797c0 1.164.7 1.828 1.93 1.828a7.027 7.027 0 0 0 1.633-.246l.347 2.309a7.505 7.505 0 0 1-2.625.425zm0 0"/></svg>